<svg width="338" height="64" viewBox="0 0 338 64" fill="none" xmlns="http://www.w3.org/2000/svg">
<g filter="url(#filter0_d_18_3964)">
<path d="M4.60298 44V2.54545H32.0504V9.77166H13.3675V19.6495H30.2287V26.8757H13.3675V44H4.60298ZM37.7838 44V12.9091H46.4067V44H37.7838ZM42.1155 8.90128C40.8335 8.90128 39.7338 8.47621 38.8161 7.62606C37.912 6.76243 37.46 5.73011 37.46 4.52912C37.46 3.34162 37.912 2.3228 38.8161 1.47266C39.7338 0.609018 40.8335 0.1772 42.1155 0.1772C43.3975 0.1772 44.4905 0.609018 45.3946 1.47266C46.3122 2.3228 46.771 3.34162 46.771 4.52912C46.771 5.73011 46.3122 6.76243 45.3946 7.62606C44.4905 8.47621 43.3975 8.90128 42.1155 8.90128ZM61.937 26.0256V44H53.3141V12.9091H61.5321V18.3945H61.8965C62.5847 16.5863 63.7385 15.1559 65.3578 14.1033C66.9771 13.0373 68.9405 12.5043 71.248 12.5043C73.4071 12.5043 75.2896 12.9766 76.8954 13.9212C78.5012 14.8658 79.7495 16.2152 80.6401 17.9695C81.5307 19.7102 81.976 21.7884 81.976 24.2038V44H73.3532V25.7422C73.3667 23.8395 72.8809 22.3551 71.8958 21.2891C70.9107 20.2095 69.5545 19.6697 67.8272 19.6697C66.6667 19.6697 65.6412 19.9194 64.7505 20.4187C63.8734 20.918 63.1852 21.6467 62.6859 22.6048C62.2001 23.5494 61.9505 24.6896 61.937 26.0256ZM97.6379 44.587C95.6542 44.587 93.8865 44.2429 92.3346 43.5547C90.7828 42.853 89.5548 41.8207 88.6507 40.4577C87.76 39.0813 87.3147 37.3675 87.3147 35.3164C87.3147 33.5891 87.6318 32.1385 88.2661 30.9645C88.9003 29.7905 89.7639 28.8459 90.857 28.1307C91.95 27.4155 93.1915 26.8757 94.5814 26.5114C95.9848 26.147 97.4557 25.8906 98.9941 25.7422C100.802 25.5533 102.26 25.3778 103.366 25.2159C104.473 25.0405 105.276 24.7841 105.775 24.4467C106.274 24.1094 106.524 23.6101 106.524 22.9489V22.8274C106.524 21.5455 106.119 20.5536 105.309 19.8519C104.513 19.1502 103.38 18.7994 101.909 18.7994C100.357 18.7994 99.1222 19.1435 98.2046 19.8317C97.287 20.5064 96.6798 21.3565 96.3829 22.3821L88.4078 21.7344C88.8126 19.8452 89.6088 18.2124 90.7963 16.8359C91.9838 15.446 93.5154 14.38 95.3911 13.6378C97.2803 12.8821 99.4664 12.5043 101.949 12.5043C103.677 12.5043 105.33 12.7067 106.908 13.1115C108.501 13.5163 109.911 14.1438 111.139 14.994C112.38 15.8441 113.359 16.9371 114.074 18.2731C114.789 19.5955 115.147 21.1811 115.147 23.0298V44H106.969V39.6886H106.726C106.227 40.6602 105.559 41.517 104.722 42.2592C103.886 42.9879 102.88 43.5614 101.706 43.9798C100.532 44.3846 99.1762 44.587 97.6379 44.587ZM100.107 38.636C101.376 38.636 102.496 38.3864 103.467 37.8871C104.439 37.3743 105.201 36.6861 105.755 35.8224C106.308 34.9588 106.585 33.9805 106.585 32.8874V29.5881C106.315 29.7635 105.944 29.9254 105.471 30.0739C105.013 30.2088 104.493 30.337 103.913 30.4585C103.332 30.5664 102.752 30.6676 102.172 30.7621C101.592 30.843 101.065 30.9173 100.593 30.9847C99.5811 31.1332 98.6972 31.3693 97.9415 31.6932C97.1858 32.017 96.5988 32.4556 96.1805 33.0089C95.7622 33.5487 95.553 34.2234 95.553 35.033C95.553 36.207 95.9781 37.1044 96.8282 37.7251C97.6919 38.3324 98.7849 38.636 100.107 38.636ZM130.459 26.0256V44H121.837V12.9091H130.055V18.3945H130.419C131.107 16.5863 132.261 15.1559 133.88 14.1033C135.5 13.0373 137.463 12.5043 139.771 12.5043C141.93 12.5043 143.812 12.9766 145.418 13.9212C147.024 14.8658 148.272 16.2152 149.163 17.9695C150.053 19.7102 150.498 21.7884 150.498 24.2038V44H141.876V25.7422C141.889 23.8395 141.403 22.3551 140.418 21.2891C139.433 20.2095 138.077 19.6697 136.35 19.6697C135.189 19.6697 134.164 19.9194 133.273 20.4187C132.396 20.918 131.708 21.6467 131.208 22.6048C130.723 23.5494 130.473 24.6896 130.459 26.0256ZM171.342 44.6072C168.157 44.6072 165.418 43.9325 163.124 42.5831C160.844 41.2202 159.089 39.331 157.861 36.9155C156.647 34.5 156.04 31.7202 156.04 28.576C156.04 25.3913 156.654 22.598 157.882 20.196C159.123 17.7805 160.884 15.8981 163.165 14.5486C165.445 13.1857 168.157 12.5043 171.302 12.5043C174.014 12.5043 176.389 12.9968 178.427 13.9819C180.464 14.967 182.077 16.3501 183.264 18.1314C184.452 19.9126 185.106 22.0043 185.228 24.4062H177.091C176.861 22.8544 176.254 21.6062 175.269 20.6616C174.297 19.7035 173.022 19.2244 171.443 19.2244C170.107 19.2244 168.94 19.5888 167.942 20.3175C166.956 21.0327 166.187 22.0785 165.634 23.4549C165.081 24.8313 164.804 26.4979 164.804 28.4545C164.804 30.4382 165.074 32.125 165.614 33.5149C166.167 34.9048 166.943 35.9641 167.942 36.6928C168.94 37.4215 170.107 37.7859 171.443 37.7859C172.428 37.7859 173.312 37.5835 174.095 37.1786C174.891 36.7738 175.546 36.1868 176.058 35.4176C176.585 34.6349 176.929 33.6971 177.091 32.604H185.228C185.093 34.979 184.445 37.0707 183.285 38.8789C182.138 40.6737 180.552 42.0771 178.528 43.0891C176.504 44.1012 174.108 44.6072 171.342 44.6072ZM204.918 44.6072C201.72 44.6072 198.967 43.9595 196.659 42.6641C194.365 41.3551 192.597 39.5064 191.356 37.1179C190.114 34.7159 189.494 31.8754 189.494 28.5962C189.494 25.3981 190.114 22.5913 191.356 20.1758C192.597 17.7603 194.345 15.8778 196.598 14.5284C198.866 13.179 201.524 12.5043 204.574 12.5043C206.625 12.5043 208.534 12.8349 210.302 13.4961C212.083 14.1438 213.635 15.1222 214.957 16.4311C216.293 17.7401 217.332 19.3864 218.075 21.37C218.817 23.3402 219.188 25.6477 219.188 28.2926V30.6609H192.935V25.3171H211.071C211.071 24.0756 210.801 22.9759 210.261 22.0178C209.722 21.0597 208.973 20.3107 208.015 19.771C207.07 19.2177 205.97 18.9411 204.715 18.9411C203.406 18.9411 202.246 19.2447 201.234 19.8519C200.235 20.4457 199.453 21.2486 198.886 22.2607C198.319 23.2592 198.029 24.3725 198.015 25.6005V30.6811C198.015 32.2195 198.299 33.5487 198.866 34.6687C199.446 35.7887 200.262 36.6523 201.315 37.2596C202.367 37.8668 203.616 38.1705 205.059 38.1705C206.017 38.1705 206.895 38.0355 207.691 37.7656C208.487 37.4957 209.168 37.0909 209.735 36.5511C210.302 36.0114 210.734 35.3501 211.031 34.5675L219.006 35.0938C218.601 37.0099 217.771 38.6832 216.516 40.1136C215.275 41.5305 213.669 42.6371 211.699 43.4332C209.742 44.2159 207.482 44.6072 204.918 44.6072Z" fill="white"/>
<path d="M233.924 44L222.589 2.54545H227.689L236.353 36.3082H236.758L245.583 2.54545H251.25L260.076 36.3082H260.481L269.144 2.54545H274.245L262.91 44H257.728L248.579 10.9659H248.255L239.106 44H233.924ZM286.106 44.7287C284.136 44.7287 282.348 44.3576 280.742 43.6154C279.136 42.8597 277.861 41.7734 276.917 40.3565C275.972 38.9261 275.5 37.1989 275.5 35.1747C275.5 33.3935 275.851 31.9496 276.552 30.843C277.254 29.723 278.192 28.8459 279.366 28.2116C280.54 27.5774 281.835 27.1051 283.252 26.7947C284.683 26.4709 286.12 26.2145 287.564 26.0256C289.453 25.7827 290.984 25.6005 292.158 25.479C293.346 25.3441 294.21 25.1214 294.749 24.8111C295.303 24.5007 295.579 23.9609 295.579 23.1918V23.0298C295.579 21.0327 295.033 19.4808 293.94 18.3743C292.86 17.2678 291.221 16.7145 289.021 16.7145C286.741 16.7145 284.953 17.2138 283.657 18.2124C282.362 19.2109 281.451 20.277 280.924 21.4105L276.39 19.7912C277.2 17.902 278.28 16.4311 279.629 15.3786C280.992 14.3125 282.476 13.5703 284.082 13.152C285.701 12.7202 287.294 12.5043 288.859 12.5043C289.858 12.5043 291.005 12.6257 292.3 12.8686C293.609 13.098 294.871 13.5771 296.085 14.3058C297.313 15.0344 298.332 16.1342 299.142 17.6051C299.951 19.076 300.356 21.0462 300.356 23.5156V44H295.579V39.7898H295.336C295.013 40.4645 294.473 41.1864 293.717 41.9556C292.961 42.7248 291.956 43.3793 290.701 43.919C289.446 44.4588 287.915 44.7287 286.106 44.7287ZM286.835 40.4375C288.724 40.4375 290.316 40.0664 291.612 39.3242C292.921 38.582 293.906 37.6239 294.567 36.4499C295.242 35.2759 295.579 34.0412 295.579 32.7457V28.3736C295.377 28.6165 294.932 28.8391 294.243 29.0415C293.569 29.2305 292.786 29.3991 291.895 29.5476C291.018 29.6825 290.161 29.804 289.325 29.9119C288.502 30.0064 287.834 30.0874 287.321 30.1548C286.079 30.3168 284.919 30.5799 283.839 30.9442C282.773 31.2951 281.91 31.8281 281.248 32.5433C280.601 33.245 280.277 34.2031 280.277 35.4176C280.277 37.0774 280.891 38.3324 282.119 39.1825C283.36 40.0192 284.932 40.4375 286.835 40.4375ZM311.039 55.6591C310.229 55.6591 309.507 55.5916 308.873 55.4567C308.239 55.3352 307.8 55.2138 307.557 55.0923L308.772 50.8821C309.932 51.179 310.958 51.2869 311.848 51.206C312.739 51.125 313.528 50.7269 314.217 50.0117C314.918 49.31 315.559 48.1697 316.14 46.5909L317.03 44.1619L305.533 12.9091H310.715L319.297 37.6847H319.621L328.203 12.9091H333.385L320.188 48.5341C319.594 50.1399 318.859 51.4691 317.982 52.5217C317.104 53.5877 316.086 54.3771 314.925 54.8899C313.778 55.4027 312.483 55.6591 311.039 55.6591Z" fill="#2F3435"/>
</g>
<defs>
<filter id="filter0_d_18_3964" x="0.602966" y="0.1772" width="336.782" height="63.4819" filterUnits="userSpaceOnUse" color-interpolation-filters="sRGB">
<feFlood flood-opacity="0" result="BackgroundImageFix"/>
<feColorMatrix in="SourceAlpha" type="matrix" values="0 0 0 0 0 0 0 0 0 0 0 0 0 0 0 0 0 0 127 0" result="hardAlpha"/>
<feOffset dy="4"/>
<feGaussianBlur stdDeviation="2"/>
<feComposite in2="hardAlpha" operator="out"/>
<feColorMatrix type="matrix" values="0 0 0 0 0 0 0 0 0 0 0 0 0 0 0 0 0 0 0.25 0"/>
<feBlend mode="normal" in2="BackgroundImageFix" result="effect1_dropShadow_18_3964"/>
<feBlend mode="normal" in="SourceGraphic" in2="effect1_dropShadow_18_3964" result="shape"/>
</filter>
</defs>
</svg>
